<?xml version="1.0" standalone="no"?>
<!DOCTYPE svg PUBLIC "-//W3C//DTD SVG 20010904//EN"
 "http://www.w3.org/TR/2001/REC-SVG-20010904/DTD/svg10.dtd">
<svg version="1.0" xmlns="http://www.w3.org/2000/svg"
 width="657.000000pt" height="657.000000pt" viewBox="0 0 657.000000 657.000000"
 preserveAspectRatio="xMidYMid meet">
<metadata>
Created by potrace 1.11, written by Peter Selinger 2001-2013
</metadata>
<g transform="translate(0.000000,657.000000) scale(0.100000,-0.100000)"
fill="#000000" stroke="none">
<path d="M3068 6565 c-1 -1 -37 -6 -78 -9 -108 -9 -143 -14 -305 -41 -156 -27
-452 -109 -560 -155 -11 -5 -65 -28 -120 -51 -379 -157 -732 -395 -1030 -694
-148 -147 -182 -185 -278 -307 -275 -352 -485 -778 -593 -1202 -31 -122 -48
-210 -78 -406 -21 -135 -28 -524 -14 -702 39 -469 195 -957 439 -1374 45 -78
178 -277 214 -323 244 -305 484 -534 760 -724 50 -34 99 -67 110 -73 11 -6 56
-33 100 -59 76 -45 283 -150 370 -187 146 -62 399 -144 538 -174 67 -15 176
-36 202 -39 17 -2 48 -7 70 -10 152 -24 237 -29 460 -30 196 0 341 7 415 19
14 3 61 10 105 16 44 6 121 20 170 31 50 11 99 22 111 25 66 13 368 110 419
134 11 5 49 21 85 36 240 98 531 274 766 462 123 98 350 320 444 432 34 41 70
84 79 96 143 170 354 532 454 779 75 184 153 438 173 561 3 22 8 42 10 45 2 3
6 20 9 37 3 18 7 44 10 60 46 268 55 676 21 942 -5 38 -20 144 -21 150 -1 3
-5 25 -9 50 -16 95 -76 330 -111 435 -32 96 -111 298 -135 344 -4 9 -27 54
-51 101 -233 470 -613 909 -1054 1219 -178 125 -472 284 -646 350 -46 18 -93
36 -104 41 -61 28 -342 109 -455 130 -107 21 -216 39 -275 45 -33 4 -71 9 -85
12 -28 5 -526 13 -532 8z"/>
</g>
</svg>
